<?xml version="1.0" encoding="utf-8"?>
<!-- Generator: Adobe Illustrator 25.0.0, SVG Export Plug-In . SVG Version: 6.00 Build 0)  -->
<svg version="1.1" id="Layer_1" xmlns="http://www.w3.org/2000/svg" xmlns:xlink="http://www.w3.org/1999/xlink" x="0px" y="0px"
	 viewBox="0 0 612 2167.7" style="enable-background:new 0 0 612 2167.7;" xml:space="preserve">
<style type="text/css">
	.st0{fill:url(#SVGID_1_);}
	.st1{fill:#3F5B66;}
	.st2{fill:#FFFFFF;}
	.st3{fill:#809993;}
	.st4{fill:#231F20;}
</style>
<g id="Layer_4">
	
		<linearGradient id="SVGID_1_" gradientUnits="userSpaceOnUse" x1="306.2" y1="-1370.1" x2="306.2" y2="493.7195" gradientTransform="matrix(1 0 0 1 0 1370)">
		<stop  offset="0" style="stop-color:#FFFFFF"/>
		<stop  offset="7.210000e-02" style="stop-color:#EEF3F1"/>
		<stop  offset="0.177" style="stop-color:#DDE7E4"/>
		<stop  offset="0.3076" style="stop-color:#D2DEDA"/>
		<stop  offset="0.491" style="stop-color:#CBD9D5"/>
		<stop  offset="1" style="stop-color:#C9D8D3"/>
	</linearGradient>
	<path class="st0" d="M612,1863.7V-0.1H0.4c0,621.3,0,1242.5,0,1863.8H612z"/>
</g>
<g>
	<path class="st1" d="M57.6,121.5c2.2-5.1,5.2-9.6,9.1-13.3c3.9-3.8,8.5-6.7,13.8-8.7s11-3.1,17.2-3.1s11.9,1,17.2,3.1
		c5.3,2,9.8,4.9,13.8,8.7c3.9,3.8,6.9,8.2,9.1,13.3s3.2,10.8,3.2,17s-1.1,11.9-3.2,17.1s-5.1,9.8-9,13.6c-3.9,3.8-8.5,6.8-13.8,8.9
		c-5.3,2.1-11.1,3.2-17.4,3.2c-6.4,0-12.2-1.1-17.5-3.2s-9.9-5.1-13.8-8.9s-6.9-8.4-9-13.6s-3.2-10.9-3.2-17.1
		C54.3,132.3,55.4,126.6,57.6,121.5z M77.7,151.1c1.9,3.6,4.5,6.5,7.9,8.6s7.4,3.1,12,3.1c4.5,0,8.5-1,11.9-3.1s6.1-4.9,7.9-8.6
		c1.9-3.6,2.8-7.8,2.8-12.6s-0.9-9-2.8-12.6c-1.8-3.6-4.4-6.5-7.8-8.6s-7.4-3.1-12.1-3.1c-4.6,0-8.6,1-12,3.1s-6.1,4.9-7.9,8.6
		c-1.9,3.7-2.8,7.8-2.8,12.6C74.9,143.3,75.8,147.5,77.7,151.1z"/>
	<path class="st1" d="M172.9,98.2v63.9h32.3v16.7h-51.8V98.2H172.9z"/>
	<path class="st1" d="M273.7,98.2L245.5,146v32.8h-19.8v-32.7l-28.2-47.9h22.3l15.8,30.3l15.8-30.3H273.7z"/>
	<path class="st1" d="M298,178.8h-20.5l13-84.6l34.3,49.2l34.4-49.2l13,84.6h-20.5l-4.8-41.1l-22.1,33.6l-22-33.6L298,178.8z"/>
	<path class="st1" d="M404.1,98.2v80.6h-19.5V98.2H404.1z M396.9,98.2h15.8c6.8,0,12.6,1.1,17.2,3.2s8.1,5.1,10.5,9
		s3.6,8.6,3.6,14.2c0,5.4-1.2,10-3.6,14c-2.4,3.9-5.9,7-10.5,9.1s-10.4,3.2-17.2,3.2h-15.8v-16h15.8c3.9,0,7-0.9,9.2-2.6
		c2.2-1.8,3.3-4.3,3.3-7.6c0-3.4-1.1-5.9-3.3-7.7s-5.3-2.7-9.2-2.7h-15.8V98.2z"/>
	<path class="st1" d="M476.2,98.2v80.6h-19.8V98.2H476.2z"/>
	<path class="st1" d="M513.1,151.2c2.2,3.6,5.2,6.3,8.8,8.1s7.7,2.8,12,2.8c3.8,0,7.2-0.5,10.1-1.5c2.9-1,5.5-2.3,7.8-3.9
		c2.3-1.6,4.3-3.3,6.1-5.2v20.9c-3.2,2.5-6.8,4.5-10.6,6s-8.7,2.2-14.6,2.2c-6.5,0-12.4-1-17.8-3s-10.1-4.9-14-8.6
		c-3.9-3.8-7-8.2-9.1-13.4c-2.1-5.1-3.2-10.9-3.2-17.1s1.1-12,3.2-17.2s5.2-9.6,9.1-13.3c3.9-3.8,8.6-6.6,14-8.6
		c5.4-2,11.4-3,17.8-3c5.9,0,10.8,0.7,14.6,2.2s7.4,3.4,10.6,6v21c-1.8-1.8-3.8-3.6-6.1-5.2s-4.9-2.9-7.8-3.9
		c-2.9-1-6.3-1.4-10.1-1.4c-4.4,0-8.4,0.9-12,2.8c-3.7,1.8-6.6,4.5-8.8,8.1c-2.2,3.5-3.3,7.8-3.3,12.8
		C509.8,143.4,510.9,147.7,513.1,151.2z"/>
</g>
<g>
	<g>
		<circle class="st2" cx="526.6" cy="157.2" r="4.5"/>
		<circle class="st2" cx="302.3" cy="185.8" r="3"/>
		<circle class="st2" cx="234.6" cy="211.4" r="3"/>
		<circle class="st2" cx="590.1" cy="186.2" r="3"/>
		<circle class="st2" cx="293" cy="231.4" r="4.5"/>
		<circle class="st2" cx="216.5" cy="161.7" r="2.4"/>
		<circle class="st2" cx="169.6" cy="193.9" r="4.5"/>
		<circle class="st2" cx="381.4" cy="211.6" r="3"/>
		<circle class="st2" cx="367.4" cy="84.1" r="4.5"/>
		<circle class="st2" cx="274.1" cy="29.6" r="2.4"/>
		<circle class="st2" cx="128" cy="234.9" r="3"/>
		<circle class="st2" cx="46.9" cy="286.6" r="3"/>
		<circle class="st2" cx="128" cy="277.2" r="4.5"/>
		<circle class="st2" cx="84.3" cy="211.7" r="2.4"/>
		<circle class="st2" cx="4.5" cy="257.4" r="4.5"/>
		<circle class="st2" cx="216.3" cy="257.4" r="3"/>
		<circle class="st2" cx="150.7" cy="101.3" r="3"/>
		<circle class="st2" cx="46.9" cy="170.6" r="3"/>
		<circle class="st2" cx="141.4" cy="147" r="4.5"/>
		<circle class="st2" cx="86.8" cy="86.5" r="2.4"/>
		<circle class="st2" cx="18" cy="127.1" r="4.5"/>
		<circle class="st2" cx="264.2" cy="104.4" r="3"/>
		<circle class="st2" cx="504.5" cy="4.7" r="3"/>
		<circle class="st2" cx="288.1" cy="142.1" r="3"/>
		<circle class="st2" cx="353.2" cy="152.9" r="4.5"/>
		<circle class="st2" cx="117.1" cy="2.4" r="2.4"/>
		<circle class="st2" cx="212.1" cy="101.1" r="4.5"/>
		<circle class="st2" cx="423.9" cy="89.3" r="3"/>
		<ellipse class="st2" cx="256.7" cy="178.6" rx="4.5" ry="4.5"/>
		<circle class="st2" cx="416.4" cy="164.3" r="4.5"/>
		<circle class="st2" cx="607.5" cy="91" r="4.5"/>
		<circle class="st2" cx="261.2" cy="286.8" r="2.4"/>
	</g>
	<g>
		<circle class="st2" cx="526.6" cy="422.2" r="4.5"/>
		<circle class="st2" cx="302.3" cy="450.8" r="3"/>
		<circle class="st2" cx="234.6" cy="476.4" r="3"/>
		<circle class="st2" cx="590.1" cy="451.2" r="3"/>
		<circle class="st2" cx="293" cy="496.4" r="4.5"/>
		<circle class="st2" cx="216.5" cy="426.7" r="2.4"/>
		<circle class="st2" cx="169.6" cy="458.9" r="4.5"/>
		<circle class="st2" cx="381.4" cy="476.6" r="3"/>
		<circle class="st2" cx="367.4" cy="349.1" r="4.5"/>
		<circle class="st2" cx="274.1" cy="294.6" r="2.4"/>
		<circle class="st2" cx="128" cy="499.9" r="3"/>
		<circle class="st2" cx="46.9" cy="551.6" r="3"/>
		<circle class="st2" cx="128" cy="542.2" r="4.5"/>
		<circle class="st2" cx="84.3" cy="476.7" r="2.4"/>
		<circle class="st2" cx="4.5" cy="522.4" r="4.5"/>
		<circle class="st2" cx="216.3" cy="522.4" r="3"/>
		<circle class="st2" cx="150.7" cy="366.3" r="3"/>
		<circle class="st2" cx="46.9" cy="435.6" r="3"/>
		<circle class="st2" cx="141.4" cy="412" r="4.5"/>
		<circle class="st2" cx="86.8" cy="351.5" r="2.4"/>
		<ellipse class="st2" cx="18" cy="392.1" rx="4.5" ry="4.5"/>
		<circle class="st2" cx="264.2" cy="369.4" r="3"/>
		<circle class="st2" cx="504.5" cy="269.7" r="3"/>
		<circle class="st2" cx="288.1" cy="407.1" r="3"/>
		<circle class="st2" cx="353.2" cy="417.9" r="4.5"/>
		<circle class="st2" cx="117.1" cy="267.4" r="2.4"/>
		<circle class="st2" cx="212.1" cy="366" r="4.5"/>
		<circle class="st2" cx="423.9" cy="354.3" r="3"/>
		<circle class="st2" cx="256.7" cy="443.6" r="4.5"/>
		<circle class="st2" cx="416.4" cy="429.3" r="4.5"/>
		<circle class="st2" cx="607.5" cy="356" r="4.5"/>
		<circle class="st2" cx="261.2" cy="551.8" r="2.4"/>
	</g>
	<g>
		<circle class="st2" cx="526.6" cy="680.2" r="4.5"/>
		<circle class="st2" cx="302.3" cy="708.8" r="3"/>
		<circle class="st2" cx="234.6" cy="734.4" r="3"/>
		<circle class="st2" cx="590.1" cy="709.2" r="3"/>
		<circle class="st2" cx="293" cy="754.4" r="4.5"/>
		<circle class="st2" cx="216.5" cy="684.7" r="2.4"/>
		<circle class="st2" cx="169.6" cy="716.9" r="4.5"/>
		<circle class="st2" cx="381.4" cy="734.6" r="3"/>
		<circle class="st2" cx="367.4" cy="607.1" r="4.5"/>
		<circle class="st2" cx="274.1" cy="552.6" r="2.4"/>
		<ellipse class="st2" cx="128" cy="757.9" rx="3" ry="3"/>
		<circle class="st2" cx="46.9" cy="809.6" r="3"/>
		<circle class="st2" cx="128" cy="800.2" r="4.5"/>
		<circle class="st2" cx="84.3" cy="734.7" r="2.4"/>
		<circle class="st2" cx="4.5" cy="780.4" r="4.5"/>
		<circle class="st2" cx="216.3" cy="780.4" r="3"/>
		<circle class="st2" cx="150.7" cy="624.3" r="3"/>
		<circle class="st2" cx="46.9" cy="693.6" r="3"/>
		<circle class="st2" cx="141.4" cy="670" r="4.5"/>
		<circle class="st2" cx="86.8" cy="609.5" r="2.4"/>
		<ellipse class="st2" cx="18" cy="650.1" rx="4.5" ry="4.5"/>
		<circle class="st2" cx="264.2" cy="627.4" r="3"/>
		<circle class="st2" cx="504.5" cy="527.7" r="3"/>
		<circle class="st2" cx="288.1" cy="665.1" r="3"/>
		<circle class="st2" cx="353.2" cy="675.8" r="4.5"/>
		<circle class="st2" cx="117.1" cy="525.4" r="2.4"/>
		<circle class="st2" cx="212.1" cy="624" r="4.5"/>
		<circle class="st2" cx="423.9" cy="612.3" r="3"/>
		<ellipse class="st2" cx="256.7" cy="701.6" rx="4.5" ry="4.5"/>
		<circle class="st2" cx="416.4" cy="687.3" r="4.5"/>
		<circle class="st2" cx="607.5" cy="614" r="4.5"/>
		<circle class="st2" cx="261.2" cy="809.8" r="2.4"/>
	</g>
	<g>
		<circle class="st2" cx="526.6" cy="945.2" r="4.5"/>
		<circle class="st2" cx="302.3" cy="973.8" r="3"/>
		<circle class="st2" cx="234.6" cy="999.4" r="3"/>
		<circle class="st2" cx="590.1" cy="974.2" r="3"/>
		<circle class="st2" cx="293" cy="1019.4" r="4.5"/>
		<circle class="st2" cx="216.5" cy="949.7" r="2.4"/>
		<circle class="st2" cx="169.6" cy="981.9" r="4.5"/>
		<circle class="st2" cx="381.4" cy="999.6" r="3"/>
		<circle class="st2" cx="367.4" cy="872.1" r="4.5"/>
		<circle class="st2" cx="274.1" cy="817.6" r="2.4"/>
		<path class="st2" d="M128,1019.9c1.7,0,3,1.4,3,3s-1.4,3-3,3s-3-1.4-3-3S126.3,1019.9,128,1019.9z"/>
		<circle class="st2" cx="46.9" cy="1074.6" r="3"/>
		<circle class="st2" cx="128" cy="1065.2" r="4.5"/>
		<circle class="st2" cx="84.3" cy="999.7" r="2.4"/>
		<circle class="st2" cx="4.5" cy="1045.4" r="4.5"/>
		<circle class="st2" cx="216.3" cy="1045.4" r="3"/>
		<circle class="st2" cx="150.7" cy="889.3" r="3"/>
		<circle class="st2" cx="46.9" cy="958.6" r="3"/>
		<circle class="st2" cx="141.4" cy="935" r="4.5"/>
		<circle class="st2" cx="86.8" cy="874.5" r="2.4"/>
		<ellipse class="st2" cx="18" cy="915.1" rx="4.5" ry="4.5"/>
		<circle class="st2" cx="264.2" cy="892.4" r="3"/>
		<circle class="st2" cx="504.5" cy="792.7" r="3"/>
		<circle class="st2" cx="288.1" cy="930.1" r="3"/>
		<circle class="st2" cx="353.2" cy="940.8" r="4.5"/>
		<circle class="st2" cx="117.1" cy="790.4" r="2.4"/>
		<circle class="st2" cx="212.1" cy="889" r="4.5"/>
		<circle class="st2" cx="423.9" cy="877.3" r="3"/>
		<ellipse class="st2" cx="256.7" cy="966.6" rx="4.5" ry="4.5"/>
		<circle class="st2" cx="416.4" cy="952.3" r="4.5"/>
		<circle class="st2" cx="607.5" cy="879" r="4.5"/>
		<circle class="st2" cx="261.2" cy="1074.8" r="2.4"/>
	</g>
	<g>
		<circle class="st2" cx="526.6" cy="1245.2" r="4.5"/>
		<circle class="st2" cx="302.3" cy="1273.8" r="3"/>
		<circle class="st2" cx="234.6" cy="1299.4" r="3"/>
		<circle class="st2" cx="590.1" cy="1274.2" r="3"/>
		<circle class="st2" cx="293" cy="1319.4" r="4.5"/>
		<circle class="st2" cx="216.5" cy="1249.7" r="2.4"/>
		<circle class="st2" cx="169.6" cy="1281.9" r="4.5"/>
		<circle class="st2" cx="381.4" cy="1299.6" r="3"/>
		<circle class="st2" cx="367.4" cy="1172.1" r="4.5"/>
		<circle class="st2" cx="274.1" cy="1117.6" r="2.4"/>
		<ellipse class="st2" cx="128" cy="1322.9" rx="3" ry="3"/>
		<circle class="st2" cx="46.9" cy="1374.6" r="3"/>
		<circle class="st2" cx="128" cy="1365.2" r="4.5"/>
		<circle class="st2" cx="84.3" cy="1299.7" r="2.4"/>
		<circle class="st2" cx="4.5" cy="1345.4" r="4.5"/>
		<circle class="st2" cx="216.3" cy="1345.4" r="3"/>
		<circle class="st2" cx="150.7" cy="1189.3" r="3"/>
		<circle class="st2" cx="46.9" cy="1258.6" r="3"/>
		<circle class="st2" cx="141.4" cy="1235" r="4.5"/>
		<circle class="st2" cx="86.8" cy="1174.5" r="2.4"/>
		<ellipse class="st2" cx="18" cy="1215.1" rx="4.5" ry="4.5"/>
		<circle class="st2" cx="264.2" cy="1192.4" r="3"/>
		<circle class="st2" cx="504.5" cy="1092.7" r="3"/>
		<circle class="st2" cx="288.1" cy="1230.1" r="3"/>
		<circle class="st2" cx="353.2" cy="1240.8" r="4.5"/>
		<circle class="st2" cx="117.1" cy="1090.4" r="2.4"/>
		<circle class="st2" cx="212.1" cy="1189.1" r="4.5"/>
		<circle class="st2" cx="423.9" cy="1177.3" r="3"/>
		<ellipse class="st2" cx="256.7" cy="1266.6" rx="4.5" ry="4.5"/>
		<circle class="st2" cx="416.4" cy="1252.3" r="4.5"/>
		<circle class="st2" cx="607.5" cy="1179" r="4.5"/>
		<circle class="st2" cx="261.2" cy="1374.8" r="2.4"/>
	</g>
</g>
<g>
	<path d="M78.3,60.2h4L73.8,78l-8.5-17.8h4l4.6,10.9L78.3,60.2z"/>
	<path d="M84.3,60.4c0.4-0.3,0.8-0.5,1.3-0.5s0.9,0.2,1.3,0.5s0.5,0.8,0.5,1.3s-0.2,0.9-0.5,1.2s-0.8,0.5-1.3,0.5s-0.9-0.2-1.3-0.5
		s-0.6-0.8-0.6-1.2C83.7,61.2,83.9,60.7,84.3,60.4z M87.1,65.9v11h-3v-11H87.1z"/>
	<path d="M92.2,74.2c0.4,0.3,0.8,0.5,1.1,0.6s0.7,0.2,1,0.2c0.4,0,0.7-0.1,1-0.3c0.2-0.2,0.3-0.4,0.3-0.8c0-0.3-0.1-0.5-0.3-0.7
		c-0.2-0.2-0.4-0.4-0.8-0.5c-0.3-0.2-0.8-0.3-1.3-0.5s-1-0.4-1.5-0.7c-0.5-0.3-0.9-0.6-1.2-1.1c-0.3-0.4-0.5-1-0.5-1.7
		s0.2-1.2,0.5-1.7s0.8-0.8,1.4-1s1.3-0.3,2-0.3c0.6,0,1.2,0.1,1.8,0.2c0.5,0.2,1.1,0.4,1.5,0.6c0.5,0.3,0.9,0.6,1.2,0.9L97,69.3
		c-0.4-0.4-0.9-0.8-1.4-1.1c-0.6-0.3-1.1-0.4-1.6-0.4c-0.3,0-0.6,0.1-0.8,0.2c-0.2,0.1-0.3,0.3-0.3,0.6c0,0.2,0.1,0.4,0.3,0.6
		c0.2,0.2,0.5,0.3,0.9,0.5s0.8,0.3,1.3,0.5c0.6,0.2,1.1,0.5,1.6,0.8s0.9,0.6,1.2,1c0.3,0.4,0.5,1,0.5,1.6c0,1.1-0.4,2-1.1,2.6
		s-1.7,0.9-3,0.9c-0.8,0-1.5-0.1-2.2-0.3s-1.2-0.5-1.8-0.8c-0.5-0.3-1-0.7-1.4-1.1l1.5-1.9C91.4,73.6,91.8,73.9,92.2,74.2z"/>
	<path d="M101.3,60.4c0.4-0.3,0.8-0.5,1.3-0.5s0.9,0.2,1.3,0.5s0.5,0.8,0.5,1.3s-0.2,0.9-0.5,1.2s-0.8,0.5-1.3,0.5s-0.9-0.2-1.3-0.5
		s-0.6-0.8-0.6-1.2C100.8,61.2,100.9,60.7,101.3,60.4z M104.1,65.9v11h-3v-11H104.1z"/>
	<path d="M112.8,65.9v2.6H106v-2.6H112.8z M110.9,62.1V77h-3V62.1H110.9z"/>
</g>
<g>
	<path class="st1" d="M64.9,193.2h1.8l6.8,10.4l0,0v-10.4h1.6v12.9h-1.9l-6.7-10.3l0,0v10.3h-1.6C64.9,206.1,64.9,193.2,64.9,193.2z
		"/>
	<path class="st1" d="M85.9,206c-0.3,0.2-0.6,0.2-1.1,0.2c-0.8,0-1.3-0.4-1.3-1.4c-0.8,1-2,1.4-3.3,1.4c-1.7,0-3.1-0.8-3.1-2.6
		c0-2.1,1.6-2.6,3.2-2.9c1.7-0.3,3.1-0.2,3.1-1.4c0-1.3-1.1-1.6-2.1-1.6c-1.3,0-2.2,0.4-2.3,1.8h-1.5c0.1-2.3,1.9-3.1,3.9-3.1
		c1.7,0,3.5,0.4,3.5,2.6v4.8c0,0.7,0,1,0.5,1c0.1,0,0.3,0,0.5-0.1L85.9,206L85.9,206z M83.4,201.3c-0.6,0.4-1.8,0.4-2.8,0.6
		c-1,0.2-1.9,0.5-1.9,1.7c0,1,0.9,1.4,1.8,1.4c2,0,2.8-1.3,2.8-2.1L83.4,201.3L83.4,201.3z"/>
	<path class="st1" d="M89.4,196.8h1.8v1.4h-1.8v5.8c0,0.7,0.2,0.8,1.2,0.8h0.7v1.4h-1.2c-1.6,0-2.2-0.3-2.2-2v-5.9h-1.6v-1.4h1.6
		V194h1.5V196.8z"/>
	<path class="st1" d="M94.6,195.1h-1.5v-1.9h1.5V195.1z M93.1,196.8h1.5v9.3h-1.5V196.8z"/>
	<path class="st1" d="M101,196.6c2.9,0,4.5,2.1,4.5,4.9c0,2.7-1.6,4.9-4.5,4.9s-4.5-2.1-4.5-4.9C96.5,198.7,98,196.6,101,196.6z
		 M101,204.9c1.6,0,2.9-1.3,2.9-3.5c0-2.3-1.3-3.5-2.9-3.5s-2.9,1.3-2.9,3.5C98.1,203.7,99.4,204.9,101,204.9z"/>
	<path class="st1" d="M107.3,196.8h1.4v1.5l0,0c0.7-1.1,1.7-1.7,3-1.7c2.4,0,3.2,1.4,3.2,3.4v6.1h-1.5v-6.3c0-1.1-0.7-1.9-1.9-1.9
		c-1.8,0-2.8,1.2-2.8,2.9v5.3h-1.5v-9.3H107.3z"/>
	<path class="st1" d="M125.6,206c-0.3,0.2-0.6,0.2-1.1,0.2c-0.8,0-1.3-0.4-1.3-1.4c-0.8,1-2,1.4-3.3,1.4c-1.7,0-3.1-0.8-3.1-2.6
		c0-2.1,1.6-2.6,3.2-2.9c1.7-0.3,3.1-0.2,3.1-1.4c0-1.3-1.1-1.6-2.1-1.6c-1.3,0-2.2,0.4-2.3,1.8h-1.5c0.1-2.3,1.9-3.1,3.9-3.1
		c1.7,0,3.5,0.4,3.5,2.6v4.8c0,0.7,0,1,0.5,1c0.1,0,0.3,0,0.5-0.1L125.6,206L125.6,206z M123.1,201.3c-0.6,0.4-1.8,0.4-2.8,0.6
		c-1,0.2-1.9,0.5-1.9,1.7c0,1,0.9,1.4,1.8,1.4c2,0,2.8-1.3,2.8-2.1L123.1,201.3L123.1,201.3z"/>
	<path class="st1" d="M127.1,193.2h1.5v12.9h-1.5C127.1,206.1,127.1,193.2,127.1,193.2z"/>
	<path class="st1" d="M136.2,193.2h5.6c2.6,0,3.9,1.4,3.9,3.8s-1.4,3.8-3.9,3.8h-3.9v5.3h-1.7L136.2,193.2L136.2,193.2z
		 M137.9,199.4h3.4c1.9,0,2.8-0.8,2.8-2.4s-0.9-2.4-2.8-2.4h-3.4V199.4z"/>
	<path class="st1" d="M155.9,206c-0.3,0.2-0.6,0.2-1.1,0.2c-0.8,0-1.3-0.4-1.3-1.4c-0.9,1-2,1.4-3.3,1.4c-1.7,0-3.1-0.8-3.1-2.6
		c0-2.1,1.6-2.6,3.1-2.9c1.7-0.3,3.1-0.2,3.1-1.4c0-1.3-1.1-1.6-2.1-1.6c-1.3,0-2.2,0.4-2.3,1.8h-1.5c0.1-2.3,1.9-3.1,3.9-3.1
		c1.7,0,3.5,0.4,3.5,2.6v4.8c0,0.7,0,1,0.5,1c0.1,0,0.3,0,0.5-0.1L155.9,206L155.9,206z M153.4,201.3c-0.6,0.4-1.8,0.4-2.8,0.6
		c-1,0.2-1.9,0.5-1.9,1.7c0,1,0.9,1.4,1.8,1.4c2,0,2.8-1.3,2.8-2.1L153.4,201.3L153.4,201.3z"/>
	<path class="st1" d="M157.2,196.8h1.4v2l0,0c0.7-1.5,1.8-2.2,3.4-2.2v1.6c-2.5,0-3.4,1.4-3.4,3.8v4.1h-1.5v-9.3H157.2z"/>
	<path class="st1" d="M163.4,193.2h1.5v7.6l4.2-4.1h2.1l-3.7,3.4l4,5.9h-1.9l-3.2-4.9l-1.4,1.3v3.5h-1.5v-12.7H163.4z"/>
</g>
<g>
	<path d="M40.9,254.2h6.4v1h-5.2v2.9h4.8v1h-4.8v3.2h5.2v1h-6.5L40.9,254.2L40.9,254.2z"/>
	<path d="M49.3,261.3c0,1,0.9,1.3,1.8,1.3c0.7,0,1.6-0.2,1.6-1c0-0.9-1.1-1-2.2-1.2c-1.1-0.2-2.2-0.6-2.2-1.9c0-1.4,1.3-1.9,2.5-1.9
		c1.5,0,2.7,0.5,2.8,2.1h-1.1c-0.1-0.9-0.8-1.1-1.6-1.1c-0.7,0-1.4,0.2-1.4,0.9c0,0.8,1.2,0.9,2.2,1.2c1.1,0.2,2.2,0.6,2.2,1.9
		c0,1.6-1.5,2.1-2.9,2.1c-1.5,0-2.8-0.6-2.8-2.3L49.3,261.3L49.3,261.3z"/>
	<path d="M56.7,256.7H58v1h-1.3v4.2c0,0.5,0.1,0.6,0.8,0.6H58v1h-0.8c-1.1,0-1.6-0.2-1.6-1.5v-4.3h-1.1v-1h1.1v-2h1.1V256.7
		L56.7,256.7z"/>
	<path d="M59.5,262h1.4v1.4h-1.4V262z"/>
	<path d="M71.4,261.1c0,1.3-0.7,2.5-2.7,2.5c-1.7,0-2.7-1-2.7-2.7v-0.6h1.2v0.4c0,1.1,0.3,1.9,1.5,1.9c1.1,0,1.5-0.6,1.5-1.7v-6.8
		h1.2V261.1L71.4,261.1z"/>
	<path d="M78.8,263.5h-1v-1.1l0,0c-0.5,0.8-1.2,1.2-2.2,1.2c-1.8,0-2.3-1-2.3-2.5v-4.4h1.1v4.5c0,0.8,0.5,1.4,1.4,1.4
		c1.3,0,2-0.9,2-2.1v-3.8h1.1L78.8,263.5L78.8,263.5z"/>
	<path d="M80.4,256.7h1v1.1l0,0c0.5-0.8,1.2-1.2,2.2-1.2c1.8,0,2.3,1,2.3,2.5v4.4h-1.1V259c0-0.8-0.5-1.4-1.4-1.4
		c-1.3,0-2,0.9-2,2.1v3.8h-1.1L80.4,256.7L80.4,256.7z"/>
	<path d="M93.4,261.3c-0.3,1.5-1.4,2.3-2.9,2.3c-2.2,0-3.2-1.5-3.2-3.5s1.3-3.5,3.2-3.5c2.4,0,3.1,2.2,3,3.9h-5
		c0,1.2,0.6,2.2,2.1,2.2c0.9,0,1.6-0.4,1.7-1.3h1.1V261.3z M92.3,259.5c-0.1-1-0.8-1.9-1.9-1.9c-1.2,0-1.8,0.9-1.9,1.9H92.3z"/>
	<path d="M98,257.5c-0.1-1.9,1-3.3,3-3.3c1.6,0,2.9,0.9,2.9,2.7c0,1.6-1.1,2.4-2.2,3.2c-1.2,0.7-2.4,1.3-2.6,2.4h4.7v1h-6
		c0.2-2.2,1.3-3,2.6-3.8c1.6-1,2.3-1.5,2.3-2.8c0-1-0.8-1.7-1.8-1.7c-1.3,0-1.8,1.2-1.8,2.3L98,257.5L98,257.5z"/>
	<path d="M106.4,261.2c0.1,0.9,0.8,1.4,1.7,1.4c1.3,0,2-1.2,2.1-3.6l0,0c-0.4,0.8-1.2,1.3-2.1,1.3c-1.9,0-2.9-1.3-2.9-3.1
		c0-1.8,1.2-3,3-3c1.7,0,3.2,0.9,3.2,4.4c0,3.2-1,5-3.2,5c-1.6,0-2.7-0.8-2.8-2.4L106.4,261.2L106.4,261.2z M108.1,255.2
		c-1.3,0-1.8,1-1.8,2.2c0,1,0.8,2,1.8,2c1.2,0,1.9-0.9,1.9-2C110,256.2,109.3,255.2,108.1,255.2z"/>
	<path d="M113,262h1.4v1.3c0,1-0.4,1.8-1.4,2v-0.6c0.6-0.2,0.8-0.9,0.8-1.3H113V262L113,262z"/>
	<path d="M123.8,263.5h-1.1v-6.6h-2.4V256c1.3,0,2.4-0.3,2.7-1.7h0.8V263.5z"/>
	<path d="M128.1,261.2c0.1,0.9,0.8,1.4,1.7,1.4c1.4,0,2-1.2,2.1-3.6l0,0c-0.4,0.8-1.2,1.3-2.1,1.3c-1.9,0-2.9-1.3-2.9-3.1
		c0-1.8,1.2-3,3-3c1.7,0,3.2,0.9,3.2,4.4c0,3.2-1,5-3.2,5c-1.6,0-2.7-0.8-2.8-2.4L128.1,261.2L128.1,261.2z M129.8,255.2
		c-1.3,0-1.8,1-1.8,2.2c0,1,0.8,2,1.8,2c1.2,0,1.9-0.9,1.9-2C131.7,256.2,131,255.2,129.8,255.2z"/>
	<path d="M136.4,258.2c0.2,0,0.3,0,0.5,0c0.9,0,1.8-0.5,1.8-1.5s-0.7-1.5-1.6-1.5c-1.2,0-1.7,0.9-1.7,2h-1.1c0.1-1.8,1-3,2.9-3
		c1.6,0,2.8,0.8,2.8,2.5c0,0.8-0.6,1.5-1.3,1.8l0,0c1.1,0.2,1.7,1.1,1.7,2.2c0,1.9-1.4,2.8-3.2,2.8c-1.9,0-3.1-1.1-3.1-3h1.1
		c0,1.2,0.7,2,2,2c1.1,0,2-0.7,2-1.8c0-1.2-0.9-1.8-2-1.8c-0.2,0-0.5,0-0.7,0L136.4,258.2L136.4,258.2z"/>
	<path d="M144.4,254.2c2,0,2.8,1.2,2.8,2.3c0,0.8-0.5,1.6-1.3,1.9c1.1,0.4,1.6,1.2,1.6,2.3c0,1.8-1.4,2.8-3.1,2.8
		c-1.8,0-3.1-0.9-3.1-2.8c0-1.1,0.6-1.9,1.6-2.3c-0.8-0.3-1.3-1.1-1.3-1.9C141.6,255.1,142.9,254.2,144.4,254.2z M144.5,262.6
		c1.1,0,1.9-0.8,1.9-1.8s-0.9-1.8-1.9-1.8c-1.1,0-1.9,0.7-1.9,1.8C142.5,262,143.3,262.6,144.5,262.6z M144.5,258.1
		c0.9,0,1.5-0.5,1.5-1.5c0-0.9-0.6-1.4-1.6-1.4c-0.9,0-1.6,0.5-1.6,1.4C142.8,257.6,143.5,258.1,144.5,258.1z"/>
</g>
<g>
	<path d="M432.4,260.7h1.2v1h-1.2v2.2h-1v-2.2h-4v-1.1l4.2-6h0.9v6.1H432.4z M431.3,260.7v-4.5l0,0l-3.1,4.5H431.3z"/>
	<path d="M440.8,255.8c-1.9,1.9-3.4,5.2-3.5,8.1H436c0.2-3.1,1.7-6,3.6-8h-4.8v-1h6L440.8,255.8L440.8,255.8z"/>
	<path d="M444,254.6c1,0,1.9,0.8,1.9,1.9c0,1-0.8,1.9-1.9,1.9s-1.9-0.8-1.9-1.9S442.9,254.6,444,254.6z M444,257.7
		c0.8,0,1.2-0.6,1.2-1.2s-0.5-1.2-1.2-1.2c-0.8,0-1.2,0.6-1.2,1.2C442.8,257.1,443.2,257.7,444,257.7z"/>
	<path d="M452.7,255.8H449l-0.5,2.6l0,0c0.4-0.5,1.1-0.7,1.7-0.7c1.6,0,3,1,3,3.2c0,1.6-1.1,3.1-3.2,3.1c-1.6,0-2.9-1-2.9-2.6h1.1
		c0.1,1,0.8,1.7,1.9,1.7c1,0,2-0.7,2-2.2c0-1.2-0.8-2.1-2.1-2.1c-0.7,0-1.3,0.4-1.7,0.9h-1l0.9-4.8h4.5L452.7,255.8L452.7,255.8z"/>
	<path d="M457.4,254.6c2,0,2.8,1.2,2.8,2.4c0,0.8-0.5,1.6-1.3,1.9c1.1,0.4,1.6,1.2,1.6,2.3c0,1.8-1.4,2.8-3,2.8
		c-1.8,0-3.1-0.9-3.1-2.8c0-1.1,0.6-1.9,1.6-2.3c-0.8-0.3-1.3-1.1-1.3-1.9C454.6,255.5,455.9,254.6,457.4,254.6z M457.5,263
		c1.1,0,1.9-0.8,1.9-1.8s-0.9-1.8-1.9-1.8c-1.1,0-2,0.7-2,1.8C455.5,262.4,456.3,263,457.5,263z M457.5,258.5c0.9,0,1.5-0.5,1.5-1.5
		c0-0.9-0.6-1.4-1.5-1.4s-1.6,0.5-1.6,1.4C455.8,258,456.5,258.5,457.5,258.5z"/>
	<path d="M462.1,254.6h1.4v1.4c0,1-0.4,1.9-1.4,1.9v-0.6c0.6,0,0.8-0.7,0.8-1.3h-0.8V254.6L462.1,254.6z"/>
	<path d="M469.3,263.9h-1.1v-6.6h-2.4v-0.9c1.3,0,2.4-0.3,2.6-1.7h0.8L469.3,263.9L469.3,263.9z"/>
	<path d="M475.5,254.6c2.9,0,3.1,2.6,3.1,4.7c0,2-0.2,4.7-3.1,4.7s-3.1-2.6-3.1-4.7C472.4,257.3,472.6,254.6,475.5,254.6z
		 M475.5,263c1.9,0,1.9-2.3,1.9-3.7c0-1.4,0-3.7-1.9-3.7s-1.9,2.3-1.9,3.7C473.6,260.7,473.6,263,475.5,263z"/>
	<path d="M480,254.6h1.4v1.4c0,1-0.4,1.9-1.4,1.9v-0.6c0.6,0,0.8-0.7,0.8-1.3H480V254.6L480,254.6z M482.3,254.6h1.4v1.4
		c0,1-0.4,1.9-1.4,1.9v-0.6c0.6,0,0.8-0.7,0.8-1.3h-0.8V254.6L482.3,254.6z"/>
	<path d="M485.6,254.6h1.3l4.9,7.5l0,0v-7.5h1.2v9.3h-1.4l-4.9-7.5l0,0v7.5h-1.2v-9.3H485.6z"/>
	<path d="M502.3,263.9h-1.1v-6.6h-2.4v-0.9c1.3,0,2.4-0.3,2.6-1.7h0.8L502.3,263.9L502.3,263.9z"/>
	<path d="M505.4,257.9c-0.1-1.9,1-3.3,3-3.3c1.6,0,2.9,0.9,2.9,2.7c0,1.6-1.1,2.4-2.2,3.2c-1.2,0.7-2.4,1.3-2.6,2.4h4.7v1h-6
		c0.2-2.2,1.3-3,2.6-3.8c1.6-1,2.4-1.5,2.4-2.8c0-1-0.8-1.7-1.8-1.7c-1.3,0-1.8,1.2-1.8,2.3L505.4,257.9L505.4,257.9z"/>
	<path d="M514.9,258.6c0.2,0,0.3,0,0.5,0c0.9,0,1.8-0.5,1.8-1.5s-0.7-1.5-1.6-1.5c-1.2,0-1.7,0.9-1.7,2h-1.1c0.1-1.8,1-3,2.8-3
		c1.6,0,2.8,0.8,2.8,2.5c0,0.8-0.6,1.5-1.3,1.8l0,0c1.1,0.2,1.7,1.1,1.7,2.2c0,1.9-1.4,2.8-3.2,2.8c-1.9,0-3.1-1.1-3.1-3h1.1
		c0,1.2,0.7,2,2,2c1.1,0,2-0.7,2-1.8c0-1.2-0.9-1.8-2-1.8c-0.2,0-0.5,0-0.7,0V258.6L514.9,258.6z"/>
	<path d="M521.9,254.6c1,0,1.9,0.8,1.9,1.9c0,1-0.8,1.9-1.9,1.9s-1.9-0.8-1.9-1.9S520.9,254.6,521.9,254.6z M521.9,257.7
		c0.8,0,1.2-0.6,1.2-1.2s-0.5-1.2-1.2-1.2c-0.8,0-1.2,0.6-1.2,1.2C520.7,257.1,521.2,257.7,521.9,257.7z"/>
	<path d="M525.1,257.9c-0.1-1.9,1-3.3,3-3.3c1.6,0,2.9,0.9,2.9,2.7c0,1.6-1.1,2.4-2.2,3.2c-1.2,0.7-2.4,1.3-2.6,2.4h4.7v1h-6
		c0.2-2.2,1.3-3,2.6-3.8c1.6-1,2.3-1.5,2.3-2.8c0-1-0.8-1.7-1.8-1.7c-1.3,0-1.8,1.2-1.8,2.3L525.1,257.9L525.1,257.9z"/>
	<path d="M533.5,261.6c0.1,0.9,0.8,1.4,1.7,1.4c1.3,0,2-1.2,2.1-3.6l0,0c-0.4,0.8-1.2,1.3-2.1,1.3c-1.9,0-2.9-1.3-2.9-3.1
		c0-1.8,1.2-3,3-3c1.7,0,3.2,0.9,3.2,4.4c0,3.2-1,5-3.2,5c-1.5,0-2.7-0.8-2.8-2.4L533.5,261.6L533.5,261.6z M535.2,255.6
		c-1.3,0-1.8,1-1.8,2.2c0,1,0.8,2,1.8,2c1.2,0,1.9-0.9,1.9-2C537.1,256.6,536.4,255.6,535.2,255.6z"/>
	<path d="M540.1,254.6h1.4v1.4c0,1-0.4,1.9-1.4,1.9v-0.6c0.6,0,0.8-0.7,0.8-1.3H540L540.1,254.6L540.1,254.6z"/>
	<path d="M548.7,255.8H545l-0.5,2.6l0,0c0.4-0.5,1.1-0.7,1.7-0.7c1.6,0,3,1,3,3.2c0,1.6-1.1,3.1-3.2,3.1c-1.6,0-2.9-1-2.9-2.6h1.1
		c0.1,1,0.8,1.7,1.9,1.7c1,0,2-0.7,2-2.2c0-1.2-0.8-2.1-2.1-2.1c-0.7,0-1.3,0.4-1.7,0.9h-1l0.9-4.8h4.5V255.8L548.7,255.8z"/>
	<path d="M555.9,255.8h-3.7l-0.5,2.6l0,0c0.4-0.5,1.1-0.7,1.7-0.7c1.6,0,3,1,3,3.2c0,1.6-1.1,3.1-3.2,3.1c-1.6,0-2.9-1-2.9-2.6h1.1
		c0.1,1,0.8,1.7,1.9,1.7c1,0,2-0.7,2-2.2c0-1.2-0.8-2.1-2.1-2.1c-0.7,0-1.3,0.4-1.7,0.9h-1l0.9-4.8h4.5V255.8L555.9,255.8z"/>
	<path d="M566.5,263.9h-1.3l-2.1-7.8l0,0l-2.1,7.8h-1.3l-2.4-9.3h1.3l1.8,7.7l0,0l2.1-7.7h1.3l2,7.7l0,0l1.9-7.7h1.2L566.5,263.9z"
		/>
	<path d="M569.9,254.6h1.4v1.4c0,1-0.4,1.9-1.4,1.9v-0.6c0.6,0,0.8-0.7,0.8-1.3h-0.8V254.6L569.9,254.6z M572.3,254.6h1.4v1.4
		c0,1-0.4,1.9-1.4,1.9v-0.6c0.6,0,0.8-0.7,0.8-1.3h-0.8V254.6L572.3,254.6z"/>
</g>
<g id="Layer_2">
</g>
<path class="st1" d="M148.1,1891.8c-0.9,0-2,0-3,0.1L148.1,1891.8z"/>
<g id="Layer_5">
	<polygon class="st3" points="0,1262.8 287,1070.8 517,835.8 612,907.8 612,2167.8 0,2167.8 	"/>
	<g>
		<g>
			<path class="st1" d="M190.1,1281.5C190.1,1281.5,190.2,1281.5,190.1,1281.5c0.1-0.1,0.1-0.1,0.1-0.1
				C189.7,1281,189.7,1281.1,190.1,1281.5z"/>
			<path class="st1" d="M194.9,1209l0.1,0.1C195,1209,195,1208.9,194.9,1209z"/>
			<path class="st1" d="M467.3,1129.2c-0.3,0.2-0.6,0.5-1,0.7c0,0.1-0.1,0.3-0.1,0.4C466.5,1130.1,466.9,1129.6,467.3,1129.2z"/>
		</g>
	</g>
</g>
<path class="st1" d="M612.3,935v-32.2h0.2c-5-5.5-7.8-8.9-7.8-8.9s-22.4-19.7-26.5-34.6s-61.7-42.8-67.2-46.1
	c-5.4-3.4-36,30.5-49.5,38c-13.6,7.4-17.6,43.4-18.3,45.4c-0.6,1.8-45.4,49.3-49.4,58.4l-145,114.6c-5.1,9.5-109.9,91.9-111,92.9
	c-1.1,1-26.7,18.7-46.4,28.2s-33.6,30.5-33.6,27.8s-13.2-15.3-13.2-15.3c-14.9-4.8-20.7-12.9-30.9-13.6c-3.3-0.2-8.3-1.6-13.7-3.4
	v114.5c31.3-37.6,72.4-72.3,77.5-75.6c6.3-4.1,49.3-17.2,60.3-24.4c11-7.2,59.6-51.1,66.3-55.2c6.8-4.1,51.6-43.4,80.1-63.3
	s25.3-25.8,29-29.4c3.6-3.6,58.8-45.2,68.3-54.7s66.9-56.1,81.4-66s16.3-24.9,21.3-35.3s25.3-37.5,25.3-37.5s14.9,9.5,17.6,12.2
	c0.3,0.3,38.6,27.7,58.9,39.3C596.7,916.7,604.5,926.3,612.3,935z"/>
<path class="st1" d="M602.3,1487.6c-7-2.3-14-25.6-14-25.6l2-1.3l-12.4-27.9l-11.3,62.7c0,0-13.1,1.8-14.5,1.8s-51.8,0.9-63.8,5.2
	c-12,4.3-40.9,17.6-44.3,18.1c-3.4,0.4-42.3,11.5-42.3,11.5s-59.2,31.2-86.4,41.2c-27.1,9.9-82.1,53.4-82.1,53.4
	c-46.4,16-101.6,56.6-103.3,57.9c1-0.5,22.6-10.9,24.2-12.2c1.6-1.4,80.7-33.9,82.1-33.9c1.3,0,58.1-38.4,67.6-41.2
	c9.5-2.7,67.9-26.5,67.9-26.5s19-8.4,21.3-9.5c2.2-1.1,80.7-20.3,80.7-20.3l-53.8,43.2c0,0-16.7,23.5-24.9,31.4
	c-8.1,7.9-66,29.6-71,31s-41.6,18.8-41.6,18.8s-16.5,15.6-17.2,15.8c-0.7,0.2-39.1,27.8-45,35.5c-5.9,7.7-37.5,28.7-37.5,28.7
	s-21,15.6-29.4,19.2c-8.4,3.6-16.5,12-17.6,13.5c-1.1,1.5-12,17.8-15.2,15c-3.2-2.7-8.4-33.5-8.4-33.5l-6.3,21.7l-14.5-27.2
	l-3.2,4.2l-8.1-13.6l5.7,1.1l-6.4-16.4l1.1-4.3l-8.6-21.9c-0.4,6.2-7,22.6-7,22.6l2.9,1.4c-0.6,5.7-4.4,14.9-4.4,14.9
	c-1.8-1.2-6.9-15.7-6.9-15.7l5.1,0.4c-3.6-4.3-7.6-20.5-7.6-20.5l4.5,1.3c-3.3-5.6-5.2-20.4-5.2-20.4l3.1-0.5l-7.1-19.7
	c-1.4,7.8-7.9,17.9-7.9,17.9l3.2,1.5c-1,7.3-6.2,11.8-6.2,11.8l-6.5-12.9l5.5,0.2c-3.4-3.4-7.9-19.6-7.9-19.6l5.8,0.9
	c-3.3-2.2-7.6-16.1-7.6-16.1l5.4,1.6l-10.9-18.4c-1.7,7.3-7.4,16.4-7.4,16.4l4.7,0.1c-0.2,2.9-10.4,14.2-10.4,14.2l5.6,0.6
	c-1.5,3-6.3,9.8-6.3,9.8c-1.2-0.5-4.4-5.8-7.5-11.1v503.8h612V1488c-2,1.9-3.8,3.7-4.2,3.7C607.9,1491.7,609.3,1489.9,602.3,1487.6z
	 M349.9,1772.7c-3.4,1.7-11.9-5.1-11.9-5.1s-2.7,15.6-4.1,20.7c-1.4,5.1-28.8,43.8-28.8,43.8l-32.2,24.8l-29.5-7.5
	c0,0-40.4-8.5-42.4-10.5s-18.7-11.2-27.5-13.2c-8.8-2-29.2-16.3-30.5-18c-1.3-1.7-4.5-9.5-4.5-9.5s11.6-14.2,24.8-21
	s20.7-13.9,25.8-19c5.1-5.1,17-17.3,22.7-20.3c5.8-3.1,28.1-13.9,30.5-14.9c2.4-1,36.3-23.4,36.3-23.4s2.1,1.2,5.5,3.1
	c-4.7,7-9.5,16.6-11,19c-6,9-12.2,18.9-21.3,24.6c-18.4,11.6-38.3,20.9-56.5,33.2c-9.5,6.4-15.8,19.7-22.5,29.1
	c7.8-1,16.9-11.7,23.5-16.2c6.5-4.4,14-6.1,21.6-8.8c7.9-2.8,15.6-4.6,22.8-8.8c3.5-2.1,8.7-3.2,11-4.6c4.2-2.6,7.7-8.1,11.8-11.2
	c6.9-5.2,11.3-11.9,14.2-20.4c1.3-1,17.7-20.4,22.1-26.8c4.6,2.7,9.4,5.5,13.8,8.2c15.3,9.2,31.9,9.2,31.9,9.2l30.5,0.3
	C375.9,1729.3,353.3,1771,349.9,1772.7z M512.1,1553.9c-0.3,1.4-6.8,15.6-6.8,29.9s-8.8,36.3-9.5,41.4s2.7,34.9,2.7,34.9
	s-9.9,10.2-15.6,6.4c-5.8-3.7-28.5-51.6-28.5-51.6s-7.8,20.4-12.9,37.7c-5.1,17.3-3.7,15.9-6.1,21.7c-2.4,5.8-17,19.7-17.3,20.7
	s-8.8,18.7-11.9,20.7c-3,2.1-8.8,3.7-11.5,2.7s-12.9-26.5-12.9-25.1s-2.4,27.8-2.4,27.8s-19.3-5.8-27.8-9.2
	c-8.5-3.4-24.8-10.9-29.5-12.6c-4.8-1.7-8.8-19-8.8-19l2-6.1c0,0,48.2-11.2,72.9-21.7c24.8-10.5,25.4-19.3,29.2-24.4
	c3.7-5.1,18.6-26.8,22-30.2c3.4-3.4,24.8-12.2,38.7-29.2s16.3-32.6,16.3-33.6s22.7-8.8,22.7-8.8S512.3,1552.5,512.1,1553.9z
	 M565.2,1527.6c-1.6,4.8-1.5,23.2-1.5,23.8c0,0.7-3.6,10.2-3.8,9.8c-0.2-0.3-4.1-4.3-4.9-7.9c-0.8-3.6-20.2-29.3-20.2-29.3
	c12-5.2,32.3-6.6,32.3-6.6S566.8,1522.7,565.2,1527.6z"/>
<g>
	<path class="st2" d="M276,1905.8h1.6l2.7,7.2l2.7-7.2h1.6v8.6h-1.1v-7.1l0,0l-2.7,7.1h-1l-2.7-7.1l0,0v7.1H276V1905.8L276,1905.8z"
		/>
	<path class="st2" d="M288.9,1908c2,0,3,1.4,3,3.2s-1,3.2-3,3.2s-3-1.4-3-3.2S286.9,1908,288.9,1908z M288.9,1913.6
		c1.1,0,1.9-0.8,1.9-2.3s-0.9-2.4-1.9-2.4s-1.9,0.8-1.9,2.4C287,1912.7,287.8,1913.6,288.9,1913.6z"/>
	<path class="st2" d="M293.1,1908.1h1v1.3l0,0c0.5-1,1.2-1.5,2.3-1.4v1.1c-1.6,0-2.2,0.9-2.2,2.5v2.8h-1L293.1,1908.1L293.1,1908.1z
		"/>
	<path class="st2" d="M302.2,1912.4c-0.3,1.4-1.3,2.1-2.6,2.1c-2,0-2.9-1.4-3-3.3c0-1.9,1.2-3.2,2.9-3.2c2.2,0,2.9,2.1,2.8,3.6h-4.6
		c0,1.1,0.6,2,1.9,2c0.8,0,1.4-0.4,1.6-1.2L302.2,1912.4L302.2,1912.4z M301.2,1910.6c0-1-0.8-1.8-1.8-1.8c-1.1,0-1.7,0.8-1.8,1.8
		H301.2z"/>
	<path class="st2" d="M306.8,1905.8h3.8c1.7,0,2.6,0.9,2.6,2.5s-0.9,2.5-2.6,2.5H308v3.5h-1.2V1905.8z M308,1909.9h2.2
		c1.3,0,1.9-0.6,1.9-1.6s-0.6-1.6-1.9-1.6H308V1909.9z"/>
	<path class="st2" d="M319.9,1914.3c-0.2,0.1-0.4,0.2-0.7,0.2c-0.5,0-0.9-0.3-0.9-1c-0.6,0.7-1.3,1-2.2,1c-1.1,0-2-0.5-2-1.7
		c0-1.4,1-1.7,2.1-1.9s2.1-0.1,2.1-0.9c0-0.9-0.7-1-1.4-1c-0.9,0-1.5,0.3-1.5,1.2h-1c0.1-1.5,1.2-2.1,2.6-2.1c1.1,0,2.3,0.2,2.3,1.7
		v3.2c0,0.5,0,0.7,0.3,0.7c0.1,0,0.2,0,0.3-0.1L319.9,1914.3L319.9,1914.3z M318.3,1911.1c-0.4,0.3-1.2,0.3-1.9,0.4
		c-0.7,0.1-1.2,0.4-1.2,1.1c0,0.7,0.6,0.9,1.2,0.9c1.3,0,1.9-0.8,1.9-1.4V1911.1L318.3,1911.1z"/>
	<path class="st2" d="M320.8,1908.1h1v1.3l0,0c0.5-1,1.2-1.5,2.3-1.4v1.1c-1.6,0-2.2,0.9-2.2,2.5v2.8h-1L320.8,1908.1L320.8,1908.1z
		"/>
	<path class="st2" d="M324.9,1905.8h1v5.1l2.8-2.7h1.4l-2.5,2.2l2.6,3.9h-1.3l-2.1-3.2l-1,0.9v2.4h-1L324.9,1905.8L324.9,1905.8z"/>
	<path class="st2" d="M331.7,1912.4c0,0.9,0.8,1.2,1.7,1.2c0.6,0,1.5-0.1,1.5-0.9c0-0.8-1-0.9-2-1.1c-1-0.2-2-0.6-2-1.8
		s1.2-1.8,2.3-1.8c1.4,0,2.5,0.4,2.5,1.9h-1c-0.1-0.8-0.8-1-1.4-1s-1.3,0.2-1.3,0.8c0,0.7,1.1,0.9,2,1.1c1,0.2,2,0.6,2,1.8
		c0,1.5-1.4,2-2.6,2c-1.4,0-2.6-0.6-2.6-2.1L331.7,1912.4L331.7,1912.4z"/>
</g>
<g>
	<path class="st4" d="M298.5,807.4l1.3-6.4l17.9,2.6c-6.1-16.1,3.3-53.6,3.3-53.6c-30.6,8.2-41.3,48.1-41.3,48.1l18.1,2.7l-1.3,6.5
		l-35.7-4.9c0,0,4.7,18.3,18.9,18.9c14.1,0.5,49.6,1.1,49.6,1.1l3.5-10L298.5,807.4z"/>
</g>
<g>
	<g>
		<path class="st4" d="M100.1,1450.7c-1.7,11.1-9.8,36.9-14.2,47.3H60.7c-0.7,0-1.3-0.7-1.3-1.5c0-0.4,0.1-0.7,0.3-0.9l39.2-67.3
			l0,0c0.4-0.7,1.2-0.8,1.7-0.4c0.2,0.2,0.3,0.3,0.4,0.5l39.2,67.3l0,0c0.4,0.7,0.2,1.6-0.4,2c-0.2,0.2-0.4,0.2-0.8,0.2h-25.1
			C109.5,1487.7,101.8,1461.8,100.1,1450.7z"/>
	</g>
	<g>
		<rect x="98.6" y="1417" class="st4" width="2.5" height="12.2"/>
	</g>
	<g>
		<rect x="59.4" y="1482.2" class="st4" width="2.5" height="14.4"/>
	</g>
	<g>
		<rect x="137.9" y="1482.2" class="st4" width="2.5" height="14.4"/>
	</g>
</g>
<g>
	<g>
		<path class="st4" d="M131.5,635.3c-0.3-0.3-0.8-0.5-1.2-0.3c-4.7,2.5-9.9,3.7-14.9,3.7c-10,0-19.7-4.7-26-13.2
			c-9.6-12.9-8.5-31.5,2.5-43.3c0.3-0.3,0.3-0.9,0.1-1.3c-0.3-0.4-0.7-0.5-1.2-0.4c-16.4,6.8-26.7,23.2-24.9,40
			c0.7,6.1,2.9,12.1,6.4,17.2c3.7,5.2,8.5,9.3,14.1,11.9c4.3,2,9.1,3,14,3c3.3,0,6.7-0.5,10-1.4c8.2-2.3,15.8-7.5,21.2-14.6
			C131.7,636.2,131.7,635.6,131.5,635.3z"/>
	</g>
	<g>
		<path class="st4" d="M114.1,600.7l-0.5,3.1c-0.1,0.4,0.1,0.8,0.4,1c0.3,0.2,0.7,0.3,1.1,0.1l2.7-1.5l2.7,1.5
			c0.1,0.1,0.3,0.1,0.5,0.1c0.2,0,0.4-0.1,0.6-0.2c0.3-0.2,0.5-0.6,0.4-1l-0.5-3.1l2.2-2.2c0.3-0.3,0.4-0.7,0.3-1.1
			c-0.1-0.3-0.4-0.7-0.8-0.7l-3.1-0.5l-1.3-2.8c-0.1-0.3-0.5-0.5-0.9-0.5s-0.7,0.2-0.9,0.5l-1.3,2.8l-3.1,0.5
			c-0.4,0.1-0.7,0.3-0.8,0.7c-0.1,0.3,0,0.8,0.3,1.1L114.1,600.7z"/>
	</g>
	<g>
		<path class="st4" d="M63.6,589.2l-0.4,2.2c-0.1,0.4,0.1,0.8,0.4,1c0.3,0.2,0.7,0.3,1.1,0.1l1.9-1.1l1.9,1.1
			c0.1,0.1,0.3,0.1,0.5,0.1c0.2,0,0.4-0.1,0.6-0.2c0.3-0.2,0.5-0.6,0.4-1l-0.4-2.2l1.6-1.5c0.3-0.3,0.3-0.7,0.3-1.1
			c-0.1-0.3-0.4-0.7-0.8-0.7l-2.1-0.3l-1-2c-0.1-0.3-0.5-0.5-0.9-0.5c-0.3,0-0.7,0.2-0.9,0.5l-1,2l-2.1,0.3
			c-0.4,0.1-0.7,0.3-0.8,0.7c-0.1,0.3,0,0.8,0.3,1.1L63.6,589.2z"/>
	</g>
	<g>
		<path class="st4" d="M66.7,642.4l-1.5-0.2l-0.7-1.5c-0.1-0.3-0.5-0.5-0.9-0.5s-0.7,0.2-0.9,0.5l-0.7,1.5l-1.5,0.2
			c-0.4,0.1-0.7,0.3-0.8,0.7c-0.1,0.3,0,0.8,0.3,1.1l1.1,1.1l-0.3,1.6c-0.1,0.4,0.1,0.8,0.4,1c0.3,0.2,0.7,0.3,1.1,0.1l1.4-0.7
			l1.4,0.7c0.1,0.1,0.3,0.1,0.5,0.1c0.2,0,0.4-0.1,0.6-0.2c0.3-0.2,0.5-0.6,0.4-1l-0.3-1.6l1.1-1.1c0.3-0.3,0.3-0.7,0.3-1.1
			C67.4,642.7,67.1,642.4,66.7,642.4z"/>
	</g>
</g>
<g>
	<path class="st4" d="M263.3,1301.3c0.3-2.4,0.6-4.9,0-7.1c-0.3-1.1-0.9-2.3-1.8-3.6c-1.3-1.8-2.9-3.5-4.3-5
		c-0.9-0.9-1.7-1.8-2.6-2.8c-0.3-0.3-0.5-0.7-0.8-1c-0.1,0.3-0.1,0.7-0.2,1c-1.6,6.6-2.9,13.4-3.6,20.1c-0.1,1-0.3,2.2,0.3,3
		c0.7,1.1,2,1.3,3.2,1.3c3.4,0.1,6.9,0.2,10.2,0.2c-0.1-0.3-0.3-0.4-0.3-0.7c-0.4-1.4-0.3-2.8-0.2-4.1
		C263.2,1302.2,263.2,1301.7,263.3,1301.3z"/>
	<path class="st4" d="M342.6,1259.2c-0.1-0.3-0.4-0.6-0.7-0.7c-1.6-0.9-3.4-1.8-4.2-3.7c-0.4-1.1-0.3-2.4-0.5-3.7
		c-0.2-1.2-0.5-3.6-1.6-3.8c-1.4-0.3-2.9-0.8-4.1-1.7c-1.2-1-2.2-2.6-2-4.3c0.1-1,0.3-2.1-0.3-2.6c-0.3-0.2-0.5-0.2-0.8-0.1
		c-1,0.1-2,0.5-2.9,1.2c-0.5,0.4-1,1-1.6,1.1c-0.6,0.2-1.3,0.1-1.9,0c-2.4-0.5-4.9-1-7.3-1.5c-1-0.2-1.8-0.3-2.7-0.8
		c-1-0.5-1.8-1.3-2.8-1.8c-3.6-1.9-7.8,1-11.8,1.5c-5.1,0.6-10.2-2.2-15.4-2.4c-5.6-0.3-11.3,0.7-16.6,2.8
		c-4.2,1.6-8.2,3.9-11.3,7.5c-3.1,3.6-5.4,8.4-5.4,13.5c0,0.8,0.1,1.7,0.6,2.2c0.3,0.3,0.8,0.3,1.2,0.5c0.9,0.5,1,1.8,1.1,3
		c0.1,2.8,0,5.6,0.3,8.4c0.7,3.6,1.7,6.4,3.2,8.2c0.8,1,1.6,1.8,2.5,2.8c1.6,1.6,3.1,3.3,4.4,5.2c1,1.5,1.6,2.8,2,4.1
		c0.7,2.5,0.3,5.2,0,7.7c-0.1,0.4-0.1,0.9-0.2,1.2c-0.1,1.1-0.3,2.4,0.1,3.5c0.2,0.4,0.3,0.9,0.7,1.1c4.5,0.1,14.8,0.3,15.1,0.3
		c0.3,0,2.3-0.2,2.8-0.4c0,0,1.7-2.1,1.4-3.1c-0.3-0.9-1-1.3-1.8-1.6c-1.8-0.8-3.8-1.2-5.7-1.2c-0.5,0-1,0-1.4-0.4
		c-0.3-0.4-0.3-1-0.2-1.5c0.6-4.4,2.1-8.9,1.2-13.2c4.6-1.1,9.1-3,13.4-5.6c0.5-0.3,1.7,0.2,1.9,1c1,5.1-1.6,10.9-0.7,16.2
		c0.6,3.3,3,8.5,6.1,8.9c0.7,0.1,6.6,0.3,6.6,0.3c0.4,0,0.8-0.1,1.2-0.1c0,0,3.8-1,3.1-2.4c-1.2-2.3-3.6-3.6-5.9-3
		c-0.3,0.1-0.5,0.2-0.8,0c-0.1-0.1-0.2-0.2-0.3-0.3c-1-2.4,0.6-5.2,1.8-7.6c1.1-2.2,1.9-4.5,2.6-6.9c0-0.2,0.1-0.4,0.1-0.6
		c0.1-0.3,0.2-0.8,0.3-1.1c0.1-0.4,1-0.1,0.9,0.3c0,0.2,2.4,5.6,2.9,6.6c1.5,3,3.2,5.9,5.1,8.5c0.9,1.2,1.8,2.2,2.8,3.2
		c0.9,1,1.7,2.2,3,2.6c1.5,0.5,3.5,0.3,5.1,0.4c0.3,0,3.7,0.1,3.7,0.1c0.4-0.1,2.7-1.7,2.3-3.1c-0.3-1-1.1-1.8-2.1-2.2
		c-1.4-0.5-2.9-0.9-4.3-0.9c-0.5,0-1.2,0-1.6-0.3c-0.3-0.3-0.6-0.9-0.8-1.3c-0.8-2.3-1-4.7-1.2-7.1c-0.8-6.1-2.3-12-4.6-17.5
		c-0.3-0.9-1.6-2.8-1.2-3.7c0.5-1.6,3-0.7,4.1-0.8c3.5-0.4,5.8-4.3,9.6-3.8c2.3,0.3,3.9,1.3,5.7-0.6c1-1,2.4-0.4,3.6-0.8
		c1.7-0.4,2.8-2.5,3.6-4.4C342.5,1259.8,342.6,1259.5,342.6,1259.2z"/>
</g>
<g>
	<ellipse class="st4" cx="504.2" cy="1015.2" rx="10" ry="10"/>
	<path class="st4" d="M471.9,1044.7c0,4.1,1.5,7.6,3.6,9c0.3,4.2,4.2,7.8,9.2,8.2l2.2,0.2l0.8-9l1.8,0.2l-0.8,8.3
		c0.3,0.9,0.7,1.7,1.3,2.5v6.9l-0.1,3.4c0-0.1,0.1-0.2,0.1-0.2v12.7l-8.6,21.3c-0.7,1.8,0.2,3.9,2.1,4.6l0,0c1.9,0.7,4-0.2,4.8-2
		l8.9-22c0.2-0.5,0.3-1,0.2-1.5l3-18c0.6,0,1.1-0.1,1.6-0.2l10.7,16.1l-4.1,21.9c-0.4,1.9,1,3.8,3,4.1c2,0.3,3.9-1,4.3-2.9l4.2-22.3
		c0.4-1,0.4-2.2-0.2-3.2l-8.9-20.7h-0.1c0.5-1.3,0.8-2.7,0.8-4.1v-9.3l6.5,5.2c0.4,0.4,1,0.6,1.5,0.7c0.3,0.1,0.6,0.2,1,0.2
		l14.5,1.4l7,55.1l1.9,0.6l-4.8-55.3c2,0.1,3.7-1.3,3.9-3.2l0,0c0.2-1.9-1.3-3.7-3.3-3.9l-1.2-0.1l-0.7-8.1l-4.7-0.2l1,7.8
		l-12.1-1.2l-10.5-8.5v-3.2c0-6.2-5.3-11.2-11.7-11.2l0,0c-2.9,0-5.6,1-7.6,2.7l-0.7,6.7l-2-0.3l0.7-7.4l-2.2-0.2
		c-5.5-0.5-10.3,3.1-10.7,7.8l-0.1,0.8C474.1,1035.5,471.9,1039.6,471.9,1044.7z M487.8,1050l1.2-13.2l2,0.4l-1.3,12.9L487.8,1050z"
		/>
</g>
<g>
	<g>
		<path class="st2" d="M157.9,2062.5c0.6-0.1,1.4-0.2,2.2-0.2c1.5,0,2.6,0.3,3.3,1c0.7,0.7,1.1,1.6,1.1,2.9c0,1.3-0.4,2.4-1.2,3.1
			c-0.8,0.8-2,1.2-3.6,1.2c-0.7,0-1.4,0-1.9-0.1V2062.5z M158.9,2069.7c0.3,0,0.6,0.1,1.1,0.1c2.2,0,3.4-1.2,3.4-3.4
			c0-1.9-1.1-3.1-3.3-3.1c-0.5,0-0.9,0-1.2,0.1V2069.7z"/>
		<path class="st2" d="M166.4,2067.8c0,1.4,0.9,2,2,2c0.8,0,1.2-0.1,1.6-0.3l0.2,0.8c-0.4,0.2-1,0.4-1.9,0.4c-1.8,0-2.9-1.2-2.9-2.9
			s1-3.1,2.7-3.1c1.9,0,2.4,1.7,2.4,2.7c0,0.2,0,0.4,0,0.5H166.4z M169.5,2067c0-0.7-0.3-1.7-1.5-1.7c-1.1,0-1.5,1-1.6,1.7H169.5z"
			/>
		<path class="st2" d="M175.1,2070.5l-0.1-0.7h0c-0.3,0.5-0.9,0.9-1.8,0.9c-1.2,0-1.8-0.8-1.8-1.7c0-1.4,1.2-2.2,3.5-2.2v-0.1
			c0-0.5-0.1-1.3-1.3-1.3c-0.5,0-1.1,0.2-1.5,0.4l-0.2-0.7c0.5-0.3,1.2-0.5,1.9-0.5c1.8,0,2.2,1.2,2.2,2.4v2.2c0,0.5,0,1,0.1,1.4
			H175.1z M174.9,2067.5c-1.2,0-2.5,0.2-2.5,1.3c0,0.7,0.5,1,1,1c0.8,0,1.2-0.5,1.4-1c0-0.1,0.1-0.2,0.1-0.3V2067.5z"/>
		<path class="st2" d="M178.9,2063v1.7h1.5v0.8h-1.5v3.1c0,0.7,0.2,1.1,0.8,1.1c0.3,0,0.5,0,0.6-0.1l0,0.8c-0.2,0.1-0.5,0.1-0.9,0.1
			c-0.5,0-0.9-0.2-1.1-0.4c-0.3-0.3-0.4-0.8-0.4-1.5v-3.2h-0.9v-0.8h0.9v-1.4L178.9,2063z"/>
		<path class="st2" d="M181.6,2062h1.1v3.6h0c0.2-0.3,0.4-0.6,0.8-0.7c0.3-0.2,0.7-0.3,1.1-0.3c0.8,0,2,0.5,2,2.5v3.5h-1.1v-3.3
			c0-0.9-0.3-1.7-1.3-1.7c-0.7,0-1.2,0.5-1.4,1.1c-0.1,0.1-0.1,0.3-0.1,0.5v3.5h-1.1V2062z"/>
		<path class="st2" d="M160.1,2084.9l-2.6-8.1h1.1l1.3,4c0.3,1.1,0.6,2.1,0.9,3h0c0.2-0.9,0.6-2,0.9-3l1.4-4h1.1l-2.9,8.1H160.1z"/>
		<path class="st2" d="M167.8,2084.9l-0.1-0.7h0c-0.3,0.5-0.9,0.9-1.8,0.9c-1.2,0-1.8-0.8-1.8-1.7c0-1.4,1.2-2.2,3.5-2.2v-0.1
			c0-0.5-0.1-1.3-1.3-1.3c-0.5,0-1.1,0.2-1.5,0.4l-0.2-0.7c0.5-0.3,1.2-0.5,1.9-0.5c1.8,0,2.2,1.2,2.2,2.4v2.2c0,0.5,0,1,0.1,1.4
			H167.8z M167.7,2081.9c-1.2,0-2.5,0.2-2.5,1.3c0,0.7,0.5,1,1,1c0.8,0,1.2-0.5,1.4-1c0-0.1,0.1-0.2,0.1-0.3V2081.9z"/>
		<path class="st2" d="M170.4,2076.4h1.1v8.5h-1.1V2076.4z"/>
		<path class="st2" d="M173.2,2076.4h1.1v8.5h-1.1V2076.4z"/>
		<path class="st2" d="M176.7,2082.2c0,1.4,0.9,2,2,2c0.8,0,1.2-0.1,1.6-0.3l0.2,0.8c-0.4,0.2-1,0.4-1.9,0.4c-1.8,0-2.9-1.2-2.9-2.9
			s1-3.1,2.7-3.1c1.9,0,2.4,1.7,2.4,2.7c0,0.2,0,0.4,0,0.5H176.7z M179.7,2081.4c0-0.7-0.3-1.7-1.5-1.7c-1.1,0-1.5,1-1.6,1.7H179.7z
			"/>
		<path class="st2" d="M182.5,2079.1l1.3,3.4c0.1,0.4,0.3,0.8,0.4,1.2h0c0.1-0.3,0.2-0.8,0.4-1.2l1.2-3.4h1.1l-1.6,4.1
			c-0.8,2-1.3,3-2,3.6c-0.5,0.5-1,0.6-1.3,0.7l-0.3-0.9c0.3-0.1,0.6-0.3,0.9-0.5c0.3-0.2,0.6-0.6,0.9-1.2c0-0.1,0.1-0.2,0.1-0.3
			c0-0.1,0-0.1-0.1-0.3l-2.1-5.3H182.5z"/>
	</g>
	<g>
		<path class="st2" d="M292.6,2070.1c-0.5,0.2-1.4,0.4-2.5,0.4c-1.2,0-2.2-0.3-3-1.1c-0.7-0.7-1.1-1.8-1.1-3c0-2.4,1.7-4.2,4.4-4.2
			c0.9,0,1.7,0.2,2,0.4l-0.3,0.9c-0.4-0.2-1-0.3-1.8-0.3c-2,0-3.2,1.2-3.2,3.2c0,2.1,1.2,3.3,3.1,3.3c0.7,0,1.2-0.1,1.4-0.2v-2.4
			H290v-0.8h2.7V2070.1z"/>
		<path class="st2" d="M297.5,2070.5l-0.1-0.7h0c-0.3,0.5-0.9,0.9-1.8,0.9c-1.2,0-1.8-0.8-1.8-1.7c0-1.4,1.2-2.2,3.5-2.2v-0.1
			c0-0.5-0.1-1.3-1.3-1.3c-0.5,0-1.1,0.2-1.5,0.4l-0.2-0.7c0.5-0.3,1.2-0.5,1.9-0.5c1.8,0,2.2,1.2,2.2,2.4v2.2c0,0.5,0,1,0.1,1.4
			H297.5z M297.3,2067.5c-1.2,0-2.5,0.2-2.5,1.3c0,0.7,0.5,1,1,1c0.8,0,1.2-0.5,1.4-1c0-0.1,0.1-0.2,0.1-0.3V2067.5z"/>
		<path class="st2" d="M301.3,2063v1.7h1.5v0.8h-1.5v3.1c0,0.7,0.2,1.1,0.8,1.1c0.3,0,0.5,0,0.6-0.1l0,0.8c-0.2,0.1-0.5,0.1-0.9,0.1
			c-0.5,0-0.9-0.2-1.1-0.4c-0.3-0.3-0.4-0.8-0.4-1.5v-3.2h-0.9v-0.8h0.9v-1.4L301.3,2063z"/>
		<path class="st2" d="M304.5,2067.8c0,1.4,0.9,2,2,2c0.8,0,1.2-0.1,1.6-0.3l0.2,0.8c-0.4,0.2-1,0.4-1.9,0.4c-1.8,0-2.9-1.2-2.9-2.9
			s1-3.1,2.7-3.1c1.9,0,2.4,1.7,2.4,2.7c0,0.2,0,0.4,0,0.5H304.5z M307.6,2067c0-0.7-0.3-1.7-1.5-1.7c-1.1,0-1.5,1-1.6,1.7H307.6z"
			/>
		<path class="st2" d="M309.8,2069.4c0.3,0.2,0.9,0.4,1.4,0.4c0.8,0,1.1-0.4,1.1-0.9c0-0.5-0.3-0.8-1.1-1.1c-1-0.4-1.5-0.9-1.5-1.6
			c0-0.9,0.8-1.7,2-1.7c0.6,0,1.1,0.2,1.4,0.4l-0.3,0.8c-0.2-0.1-0.6-0.3-1.2-0.3c-0.6,0-1,0.4-1,0.8c0,0.5,0.3,0.7,1.1,1
			c1,0.4,1.5,0.9,1.5,1.8c0,1-0.8,1.7-2.2,1.7c-0.6,0-1.2-0.2-1.6-0.4L309.8,2069.4z"/>
		<path class="st2" d="M322.5,2067.6c0,2.1-1.5,3.1-2.9,3.1c-1.6,0-2.8-1.2-2.8-3c0-1.9,1.3-3.1,2.9-3.1
			C321.4,2064.6,322.5,2065.8,322.5,2067.6z M317.9,2067.6c0,1.3,0.7,2.2,1.8,2.2c1,0,1.8-0.9,1.8-2.3c0-1-0.5-2.2-1.7-2.2
			C318.4,2065.4,317.9,2066.5,317.9,2067.6z"/>
		<path class="st2" d="M323.9,2070.5v-5h-0.8v-0.8h0.8v-0.3c0-0.8,0.2-1.6,0.7-2c0.4-0.4,0.9-0.5,1.4-0.5c0.4,0,0.7,0.1,0.9,0.2
			l-0.1,0.8c-0.2-0.1-0.4-0.1-0.7-0.1c-0.9,0-1.1,0.8-1.1,1.7v0.3h1.4v0.8H325v5H323.9z"/>
		<path class="st2" d="M284.2,2077.4v1.7h1.5v0.8h-1.5v3.1c0,0.7,0.2,1.1,0.8,1.1c0.3,0,0.5,0,0.6-0.1l0,0.8
			c-0.2,0.1-0.5,0.1-0.9,0.1c-0.5,0-0.9-0.2-1.1-0.4c-0.3-0.3-0.4-0.8-0.4-1.5v-3.2h-0.9v-0.8h0.9v-1.4L284.2,2077.4z"/>
		<path class="st2" d="M286.9,2076.4h1.1v3.6h0c0.2-0.3,0.4-0.6,0.8-0.7c0.3-0.2,0.7-0.3,1.1-0.3c0.8,0,2,0.5,2,2.5v3.5h-1.1v-3.3
			c0-0.9-0.3-1.7-1.3-1.7c-0.7,0-1.2,0.5-1.4,1.1c-0.1,0.1-0.1,0.3-0.1,0.5v3.5h-1.1V2076.4z"/>
		<path class="st2" d="M294.1,2082.2c0,1.4,0.9,2,2,2c0.8,0,1.2-0.1,1.6-0.3l0.2,0.8c-0.4,0.2-1,0.4-1.9,0.4c-1.8,0-2.9-1.2-2.9-2.9
			s1-3.1,2.7-3.1c1.9,0,2.4,1.7,2.4,2.7c0,0.2,0,0.4,0,0.5H294.1z M297.2,2081.4c0-0.7-0.3-1.7-1.5-1.7c-1.1,0-1.5,1-1.6,1.7H297.2z
			"/>
		<path class="st2" d="M303.4,2082.4l-0.8,2.5h-1.1l2.7-8.1h1.3l2.8,8.1h-1.1l-0.9-2.5H303.4z M306.1,2081.5l-0.8-2.3
			c-0.2-0.5-0.3-1-0.4-1.5h0c-0.1,0.5-0.3,1-0.4,1.5l-0.8,2.3H306.1z"/>
		<path class="st2" d="M309.4,2080.9c0-0.7,0-1.3,0-1.8h0.9l0,1.1h0c0.3-0.8,0.9-1.3,1.6-1.3c0.1,0,0.2,0,0.3,0v1
			c-0.1,0-0.2,0-0.4,0c-0.7,0-1.3,0.6-1.4,1.4c0,0.1,0,0.3,0,0.5v3.1h-1V2080.9z"/>
		<path class="st2" d="M317.3,2084.7c-0.3,0.1-0.9,0.3-1.7,0.3c-1.8,0-2.9-1.2-2.9-3c0-1.8,1.2-3.1,3.1-3.1c0.6,0,1.2,0.2,1.5,0.3
			l-0.2,0.8c-0.3-0.1-0.6-0.3-1.2-0.3c-1.3,0-2.1,1-2.1,2.2c0,1.3,0.9,2.2,2,2.2c0.6,0,1-0.2,1.3-0.3L317.3,2084.7z"/>
		<path class="st2" d="M320,2077.4v1.7h1.5v0.8H320v3.1c0,0.7,0.2,1.1,0.8,1.1c0.3,0,0.5,0,0.6-0.1l0,0.8c-0.2,0.1-0.5,0.1-0.9,0.1
			c-0.5,0-0.9-0.2-1.1-0.4c-0.3-0.3-0.4-0.8-0.4-1.5v-3.2h-0.9v-0.8h0.9v-1.4L320,2077.4z"/>
		<path class="st2" d="M323.9,2077.5c0,0.4-0.3,0.6-0.7,0.6c-0.4,0-0.6-0.3-0.6-0.6c0-0.4,0.3-0.7,0.7-0.7
			C323.6,2076.8,323.9,2077.1,323.9,2077.5z M322.7,2084.9v-5.8h1.1v5.8H322.7z"/>
		<path class="st2" d="M329.6,2084.7c-0.3,0.1-0.9,0.3-1.7,0.3c-1.8,0-2.9-1.2-2.9-3c0-1.8,1.2-3.1,3.1-3.1c0.6,0,1.2,0.2,1.5,0.3
			l-0.2,0.8c-0.3-0.1-0.6-0.3-1.2-0.3c-1.3,0-2.1,1-2.1,2.2c0,1.3,0.9,2.2,2,2.2c0.6,0,1-0.2,1.3-0.3L329.6,2084.7z"/>
	</g>
	<g>
		<path class="st2" d="M426.3,2068l-0.8,2.5h-1.1l2.7-8.1h1.3l2.8,8.1h-1.1l-0.9-2.5H426.3z M429,2067.1l-0.8-2.3
			c-0.2-0.5-0.3-1-0.4-1.5h0c-0.1,0.5-0.3,1-0.4,1.5l-0.8,2.3H429z"/>
		<path class="st2" d="M432.3,2066.5c0-0.7,0-1.3,0-1.8h0.9l0,1.1h0c0.3-0.8,0.9-1.3,1.6-1.3c0.1,0,0.2,0,0.3,0v1
			c-0.1,0-0.2,0-0.4,0c-0.7,0-1.3,0.6-1.4,1.4c0,0.1,0,0.3,0,0.5v3.1h-1V2066.5z"/>
		<path class="st2" d="M440.2,2070.3c-0.3,0.1-0.9,0.3-1.7,0.3c-1.8,0-2.9-1.2-2.9-3c0-1.8,1.2-3.1,3.1-3.1c0.6,0,1.2,0.2,1.5,0.3
			l-0.2,0.8c-0.3-0.1-0.6-0.3-1.2-0.3c-1.3,0-2.1,1-2.1,2.2c0,1.3,0.9,2.2,2,2.2c0.6,0,1-0.2,1.3-0.3L440.2,2070.3z"/>
		<path class="st2" d="M441.5,2062h1.1v3.6h0c0.2-0.3,0.4-0.6,0.8-0.7c0.3-0.2,0.7-0.3,1.1-0.3c0.8,0,2,0.5,2,2.5v3.5h-1.1v-3.3
			c0-0.9-0.3-1.7-1.3-1.7c-0.7,0-1.2,0.5-1.4,1.1c-0.1,0.1-0.1,0.3-0.1,0.5v3.5h-1.1V2062z"/>
		<path class="st2" d="M448.7,2067.8c0,1.4,0.9,2,2,2c0.8,0,1.2-0.1,1.6-0.3l0.2,0.8c-0.4,0.2-1,0.4-1.9,0.4c-1.8,0-2.9-1.2-2.9-2.9
			s1-3.1,2.7-3.1c1.9,0,2.4,1.7,2.4,2.7c0,0.2,0,0.4,0,0.5H448.7z M451.8,2067c0-0.7-0.3-1.7-1.5-1.7c-1.1,0-1.5,1-1.6,1.7H451.8z"
			/>
		<path class="st2" d="M454,2069.4c0.3,0.2,0.9,0.4,1.4,0.4c0.8,0,1.1-0.4,1.1-0.9c0-0.5-0.3-0.8-1.1-1.1c-1-0.4-1.5-0.9-1.5-1.6
			c0-0.9,0.8-1.7,2-1.7c0.6,0,1.1,0.2,1.4,0.4l-0.3,0.8c-0.2-0.1-0.6-0.3-1.2-0.3c-0.6,0-1,0.4-1,0.8c0,0.5,0.3,0.7,1.1,1
			c1,0.4,1.5,0.9,1.5,1.8c0,1-0.8,1.7-2.2,1.7c-0.6,0-1.2-0.2-1.6-0.4L454,2069.4z"/>
	</g>
</g>
</svg>
